<?xml version="1.0" encoding="utf-8"?>
<!-- Generator: Adobe Illustrator 17.0.0, SVG Export Plug-In . SVG Version: 6.00 Build 0)  -->
<!DOCTYPE svg PUBLIC "-//W3C//DTD SVG 1.1//EN" "http://www.w3.org/Graphics/SVG/1.1/DTD/svg11.dtd">
<svg version="1.1" id="Layer_1" xmlns="http://www.w3.org/2000/svg" xmlns:xlink="http://www.w3.org/1999/xlink" x="0px" y="0px"
	 width="300px" height="100px" viewBox="-73 -25 300 100" enable-background="new -73 -25 300 100" xml:space="preserve">
<g>
	<path fill="#1D1D1B" d="M-15.707,40.62c-1.889,10.761-23.844,18.226-24.463,10.213l-5.07-16.144
		c-0.197-0.09-0.382-0.178-0.572-0.265c1.693-2.242,2.698-5.031,2.698-8.057c0-2.907-0.929-5.597-2.503-7.79
		c3.393-0.825,7.25-1.416,11.06-1.779c1.849,1.748,4.091,2.88,6.534,2.88c2.565,0,4.905-1.245,6.805-3.141
		c4.52,0.451,5.07,2.119,11.836,8.775c-0.685,0.402-1.313,0.888-1.871,1.446c-0.96,0.96-1.709,2.128-2.175,3.434l-9.191,1.582
		c-0.919-2.718-2.784-4.579-4.934-4.579c-3.063,0-5.543,3.765-5.543,8.412s2.482,8.412,5.543,8.412c2.152,0,4.017-1.859,4.936-4.579
		L-15.707,40.62z"/>
	<circle fill="#A93439" cx="-56.488" cy="26.362" r="11.832"/>
	<polygon fill="#FFFFFF" points="-58.423,24.442 -58.423,19.075 -54.525,19.075 -54.525,24.442 -49.215,24.442 -49.215,28.34 
		-54.525,28.34 -54.525,33.651 -58.423,33.651 -58.423,28.34 -63.761,28.34 -63.761,24.442 	"/>
	<path fill="#A93439" d="M-28.024-5.003c-5.599,0-10.139,4.54-10.139,10.139s4.54,12.997,10.139,12.997s10.139-7.398,10.139-12.997
		S-22.424-5.003-28.024-5.003z"/>
	<circle fill="#A93439" cx="-4.71" cy="33.3" r="7.831"/>
	<rect x="-7.231" y="31.854" fill="#FFFFFF" width="5.394" height="2.913"/>
</g>
<g>
	<path fill="#1D1D1B" d="M93.412,32.433c0,0.25-0.006,0.457-0.02,0.628c-0.016,0.166-0.033,0.31-0.059,0.427
		c-0.025,0.113-0.055,0.207-0.088,0.281c-0.033,0.072-0.107,0.162-0.222,0.275c-0.119,0.107-0.314,0.246-0.589,0.402
		c-0.281,0.158-0.595,0.298-0.954,0.427c-0.353,0.123-0.737,0.226-1.153,0.298c-0.418,0.08-0.851,0.119-1.292,0.119
		c-0.987,0-1.861-0.152-2.622-0.46c-0.765-0.304-1.405-0.761-1.926-1.36c-0.515-0.599-0.909-1.336-1.169-2.201
		c-0.265-0.864-0.398-1.851-0.398-2.967c0-1.288,0.162-2.402,0.482-3.336c0.324-0.936,0.771-1.713,1.346-2.329
		c0.574-0.613,1.256-1.071,2.043-1.37s1.65-0.447,2.593-0.447c0.382,0,0.757,0.033,1.13,0.103c0.369,0.064,0.712,0.158,1.036,0.271
		c0.32,0.119,0.609,0.246,0.86,0.388c0.256,0.146,0.437,0.271,0.54,0.378c0.107,0.103,0.181,0.191,0.226,0.265
		c0.039,0.074,0.072,0.166,0.098,0.281c0.025,0.119,0.045,0.261,0.059,0.427c0.016,0.172,0.02,0.375,0.02,0.613
		c0,0.56-0.045,0.954-0.142,1.178c-0.098,0.226-0.222,0.339-0.375,0.339c-0.162,0-0.339-0.07-0.521-0.201
		c-0.181-0.133-0.396-0.285-0.65-0.447c-0.246-0.162-0.546-0.314-0.89-0.447c-0.343-0.133-0.757-0.201-1.237-0.201
		c-0.942,0-1.66,0.363-2.162,1.085c-0.496,0.726-0.747,1.789-0.747,3.188c0,0.687,0.064,1.297,0.185,1.826
		c0.127,0.525,0.31,0.968,0.554,1.321c0.246,0.353,0.55,0.624,0.919,0.802c0.375,0.178,0.802,0.265,1.292,0.265
		c0.496,0,0.929-0.074,1.288-0.226c0.357-0.146,0.673-0.314,0.942-0.496c0.265-0.181,0.492-0.349,0.677-0.496
		c0.183-0.152,0.336-0.226,0.457-0.226c0.088,0,0.158,0.023,0.217,0.074c0.059,0.049,0.103,0.137,0.137,0.265
		c0.033,0.133,0.059,0.298,0.08,0.499C93.4,31.854,93.412,32.113,93.412,32.433L93.412,32.433z M108.867,27.929
		c0,1.091-0.142,2.088-0.433,2.991c-0.289,0.899-0.722,1.674-1.311,2.329c-0.585,0.654-1.317,1.153-2.201,1.512
		c-0.884,0.353-1.916,0.531-3.094,0.531c-1.145,0-2.136-0.158-2.981-0.476c-0.845-0.314-1.547-0.776-2.101-1.381
		c-0.554-0.605-0.968-1.346-1.239-2.23c-0.271-0.88-0.402-1.885-0.402-3.02c0-1.091,0.146-2.091,0.437-2.997
		c0.295-0.909,0.732-1.686,1.321-2.333c0.585-0.644,1.317-1.145,2.195-1.502c0.874-0.353,1.906-0.531,3.082-0.531
		c1.153,0,2.152,0.158,2.997,0.466c0.845,0.314,1.541,0.773,2.093,1.375c0.556,0.605,0.962,1.344,1.233,2.23
		C108.735,25.773,108.867,26.785,108.867,27.929L108.867,27.929z M105.155,28.073c0-0.634-0.049-1.217-0.152-1.75
		c-0.103-0.535-0.271-0.997-0.515-1.389c-0.24-0.392-0.56-0.702-0.958-0.923c-0.402-0.222-0.903-0.33-1.512-0.33
		c-0.54,0-1.013,0.098-1.42,0.295c-0.402,0.197-0.737,0.486-0.997,0.864c-0.261,0.378-0.457,0.835-0.585,1.366
		c-0.133,0.535-0.197,1.139-0.197,1.822c0,0.634,0.055,1.217,0.158,1.75c0.107,0.535,0.281,0.997,0.515,1.389
		c0.236,0.394,0.554,0.698,0.962,0.915c0.402,0.217,0.903,0.324,1.502,0.324c0.55,0,1.026-0.098,1.434-0.295
		c0.402-0.197,0.737-0.482,0.997-0.855c0.261-0.378,0.453-0.829,0.579-1.36C105.089,29.359,105.155,28.756,105.155,28.073
		L105.155,28.073z M124.003,34.482c0,0.094-0.029,0.178-0.088,0.25c-0.055,0.072-0.152,0.133-0.285,0.181
		c-0.137,0.045-0.324,0.084-0.56,0.107c-0.236,0.023-0.525,0.033-0.868,0.033c-0.357,0-0.654-0.01-0.89-0.033
		c-0.236-0.025-0.421-0.064-0.56-0.107c-0.133-0.049-0.23-0.107-0.285-0.181c-0.059-0.074-0.088-0.158-0.088-0.25V27.16
		c0-0.624-0.045-1.114-0.137-1.469c-0.088-0.357-0.222-0.663-0.394-0.915c-0.172-0.256-0.396-0.453-0.667-0.595
		c-0.275-0.137-0.589-0.207-0.954-0.207c-0.46,0-0.923,0.166-1.395,0.505c-0.466,0.336-0.958,0.825-1.463,1.463v8.537
		c0,0.094-0.029,0.178-0.088,0.25c-0.055,0.072-0.152,0.133-0.295,0.181c-0.137,0.045-0.324,0.084-0.55,0.107
		c-0.23,0.023-0.525,0.033-0.878,0.033s-0.65-0.01-0.878-0.033c-0.226-0.025-0.414-0.064-0.55-0.107
		c-0.142-0.049-0.24-0.107-0.295-0.181c-0.059-0.074-0.088-0.158-0.088-0.25V21.631c0-0.094,0.025-0.176,0.074-0.25
		c0.045-0.072,0.133-0.133,0.256-0.181c0.127-0.045,0.285-0.084,0.482-0.107c0.197-0.025,0.447-0.033,0.741-0.033
		c0.31,0,0.56,0.01,0.761,0.033c0.201,0.023,0.357,0.064,0.472,0.107c0.107,0.049,0.187,0.107,0.236,0.181
		c0.049,0.074,0.074,0.158,0.074,0.25v1.483c0.708-0.767,1.43-1.336,2.166-1.719c0.732-0.382,1.498-0.574,2.294-0.574
		c0.874,0,1.611,0.142,2.21,0.433c0.599,0.285,1.079,0.677,1.453,1.174c0.369,0.492,0.634,1.071,0.796,1.732
		c0.162,0.663,0.246,1.459,0.246,2.388v7.931h-0.008V34.482z"/>
	<path fill="#A93439" d="M155.112,34.595c0,0.08-0.02,0.146-0.059,0.201c-0.039,0.059-0.107,0.103-0.205,0.137
		c-0.098,0.033-0.226,0.064-0.378,0.088c-0.152,0.023-0.353,0.033-0.599,0.033c-0.23,0-0.427-0.01-0.589-0.033
		c-0.162-0.025-0.291-0.055-0.382-0.088c-0.094-0.033-0.162-0.08-0.201-0.137c-0.039-0.055-0.059-0.123-0.059-0.201V18.373h-0.029
		l-6.557,16.296c-0.025,0.068-0.07,0.123-0.119,0.172c-0.055,0.049-0.133,0.088-0.23,0.123c-0.103,0.033-0.222,0.059-0.363,0.074
		c-0.137,0.016-0.304,0.02-0.496,0.02c-0.201,0-0.375-0.01-0.515-0.029c-0.142-0.02-0.265-0.045-0.357-0.08
		c-0.098-0.033-0.172-0.074-0.226-0.123c-0.049-0.049-0.088-0.098-0.107-0.158l-6.276-16.296h-0.016v16.222
		c0,0.08-0.02,0.146-0.059,0.201c-0.039,0.059-0.107,0.103-0.205,0.137c-0.098,0.033-0.23,0.064-0.388,0.088
		c-0.158,0.023-0.357,0.033-0.605,0.033c-0.242,0-0.437-0.01-0.595-0.033c-0.158-0.025-0.285-0.055-0.378-0.088
		c-0.094-0.033-0.158-0.08-0.191-0.137c-0.033-0.055-0.055-0.123-0.055-0.201V17.466c0-0.408,0.107-0.693,0.32-0.864
		c0.217-0.172,0.456-0.261,0.716-0.261h1.522c0.31,0,0.585,0.029,0.815,0.088c0.236,0.055,0.437,0.146,0.613,0.271
		c0.178,0.127,0.324,0.285,0.437,0.476c0.119,0.191,0.222,0.417,0.31,0.677l5.328,13.487h0.072l5.531-13.448
		c0.107-0.285,0.226-0.531,0.353-0.732c0.127-0.201,0.265-0.363,0.417-0.482c0.146-0.123,0.32-0.207,0.499-0.261
		c0.187-0.055,0.402-0.078,0.644-0.078h1.598c0.142,0,0.285,0.02,0.418,0.064c0.127,0.045,0.24,0.113,0.336,0.201
		c0.094,0.094,0.166,0.207,0.226,0.349c0.059,0.137,0.088,0.31,0.088,0.511L155.112,34.595L155.112,34.595z M170.435,33.941
		c0,0.178-0.01,0.33-0.029,0.457c-0.02,0.127-0.055,0.236-0.098,0.324c-0.049,0.088-0.103,0.146-0.166,0.187
		c-0.064,0.039-0.133,0.059-0.211,0.059h-8.943c-0.222,0-0.433-0.074-0.628-0.222c-0.197-0.152-0.295-0.414-0.295-0.786V17.351
		c0-0.375,0.098-0.634,0.295-0.786c0.197-0.146,0.408-0.222,0.628-0.222h8.84c0.078,0,0.146,0.02,0.211,0.059
		c0.064,0.039,0.113,0.098,0.152,0.187c0.033,0.088,0.068,0.197,0.094,0.324c0.025,0.127,0.033,0.291,0.033,0.482
		c0,0.178-0.01,0.324-0.033,0.457c-0.025,0.127-0.059,0.236-0.094,0.32c-0.039,0.08-0.094,0.137-0.152,0.178
		c-0.064,0.039-0.133,0.059-0.211,0.059h-7.289v5.833h6.257c0.078,0,0.146,0.02,0.211,0.064c0.059,0.045,0.113,0.103,0.158,0.181
		c0.045,0.08,0.074,0.181,0.094,0.314c0.02,0.137,0.029,0.295,0.029,0.476c0,0.178-0.01,0.324-0.029,0.447
		c-0.019,0.127-0.049,0.226-0.094,0.304c-0.045,0.08-0.098,0.133-0.158,0.166c-0.064,0.033-0.133,0.049-0.211,0.049h-6.257v6.66
		h7.392c0.078,0,0.146,0.02,0.211,0.059c0.064,0.039,0.119,0.098,0.166,0.178c0.045,0.084,0.078,0.191,0.098,0.32
		C170.425,33.588,170.435,33.75,170.435,33.941L170.435,33.941z M188.54,33.932c0,0.191-0.033,0.357-0.098,0.492
		c-0.064,0.133-0.146,0.246-0.25,0.33c-0.103,0.088-0.222,0.146-0.349,0.187c-0.133,0.039-0.261,0.059-0.388,0.059h-0.821
		c-0.256,0-0.482-0.023-0.677-0.078c-0.191-0.055-0.375-0.146-0.55-0.285c-0.172-0.137-0.349-0.324-0.521-0.56
		c-0.172-0.236-0.357-0.546-0.554-0.917l-5.687-10.594c-0.298-0.546-0.599-1.12-0.899-1.719c-0.304-0.599-0.585-1.184-0.845-1.75
		h-0.029c0.02,0.687,0.033,1.395,0.045,2.117c0.01,0.716,0.016,1.434,0.016,2.14v11.243c0,0.07-0.02,0.133-0.059,0.197
		c-0.045,0.059-0.113,0.107-0.205,0.142c-0.098,0.033-0.222,0.064-0.378,0.088c-0.156,0.023-0.357,0.033-0.599,0.033
		c-0.246,0-0.447-0.01-0.605-0.033c-0.158-0.025-0.281-0.055-0.369-0.088c-0.094-0.033-0.158-0.084-0.201-0.142
		c-0.039-0.064-0.059-0.127-0.059-0.197V17.413c0-0.382,0.107-0.659,0.33-0.819c0.217-0.162,0.453-0.246,0.712-0.246h1.217
		c0.285,0,0.525,0.023,0.716,0.074c0.197,0.045,0.369,0.127,0.521,0.236c0.152,0.107,0.304,0.265,0.447,0.46
		c0.142,0.197,0.295,0.443,0.453,0.741l4.372,8.172c0.271,0.501,0.531,0.987,0.78,1.463c0.25,0.476,0.496,0.942,0.726,1.405
		c0.23,0.457,0.46,0.915,0.687,1.36c0.23,0.443,0.453,0.894,0.677,1.346h0.016c-0.02-0.761-0.033-1.547-0.039-2.368
		c-0.006-0.819-0.006-1.611-0.006-2.368V16.781c0-0.068,0.019-0.133,0.059-0.185c0.045-0.059,0.113-0.107,0.205-0.152
		c0.098-0.045,0.226-0.074,0.378-0.094c0.158-0.02,0.363-0.031,0.618-0.031c0.222,0,0.414,0.01,0.574,0.031
		c0.162,0.02,0.289,0.049,0.378,0.094c0.094,0.045,0.158,0.094,0.201,0.152c0.039,0.055,0.059,0.119,0.059,0.185L188.54,33.932
		C188.538,33.932,188.54,33.932,188.54,33.932z M209.064,25.439c0,1.508-0.178,2.864-0.531,4.072
		c-0.357,1.21-0.89,2.236-1.592,3.082c-0.708,0.845-1.592,1.498-2.657,1.955c-1.065,0.457-2.308,0.683-3.726,0.683
		c-1.401,0-2.608-0.207-3.629-0.624c-1.026-0.418-1.867-1.026-2.534-1.822c-0.667-0.796-1.165-1.783-1.489-2.962
		c-0.33-1.178-0.492-2.534-0.492-4.068c0-1.469,0.178-2.805,0.531-4.003c0.357-1.198,0.89-2.214,1.6-3.055
		c0.708-0.835,1.598-1.483,2.661-1.939c1.061-0.457,2.304-0.683,3.726-0.683c1.37,0,2.564,0.207,3.58,0.618
		c1.018,0.414,1.867,1.013,2.54,1.803c0.677,0.79,1.184,1.769,1.512,2.936C208.896,22.603,209.064,23.937,209.064,25.439
		L209.064,25.439z M206.44,25.611c0-1.052-0.094-2.033-0.281-2.936c-0.187-0.903-0.496-1.69-0.933-2.357
		c-0.437-0.663-1.016-1.184-1.744-1.559c-0.732-0.375-1.631-0.56-2.702-0.56c-1.075,0-1.974,0.201-2.702,0.603
		c-0.726,0.402-1.321,0.936-1.771,1.606c-0.457,0.673-0.78,1.453-0.975,2.351c-0.197,0.894-0.295,1.832-0.295,2.819
		c0,1.094,0.094,2.097,0.275,3.016c0.181,0.923,0.486,1.713,0.919,2.382c0.427,0.663,1.007,1.178,1.729,1.547
		s1.631,0.554,2.72,0.554c1.085,0,1.994-0.201,2.731-0.605c0.737-0.402,1.331-0.942,1.783-1.631
		c0.447-0.683,0.773-1.479,0.962-2.376C206.348,27.572,206.44,26.618,206.44,25.611L206.44,25.611z M223.007,29.743
		c0,0.868-0.162,1.647-0.482,2.329c-0.324,0.677-0.773,1.256-1.342,1.732c-0.57,0.472-1.243,0.829-2.013,1.071
		c-0.776,0.24-1.606,0.357-2.501,0.357c-0.624,0-1.204-0.055-1.732-0.158c-0.535-0.107-1.013-0.24-1.43-0.392
		c-0.417-0.152-0.765-0.314-1.052-0.476c-0.281-0.166-0.482-0.304-0.589-0.421c-0.113-0.113-0.191-0.261-0.246-0.437
		c-0.055-0.178-0.08-0.414-0.08-0.708c0-0.211,0.01-0.388,0.029-0.525c0.02-0.137,0.049-0.25,0.084-0.336
		c0.039-0.088,0.088-0.146,0.146-0.181c0.059-0.033,0.123-0.049,0.201-0.049c0.133,0,0.324,0.084,0.57,0.246
		c0.24,0.162,0.556,0.339,0.942,0.531c0.382,0.187,0.845,0.369,1.391,0.535c0.54,0.166,1.169,0.25,1.875,0.25
		c0.54,0,1.032-0.074,1.479-0.217c0.447-0.142,0.829-0.343,1.149-0.611c0.324-0.261,0.57-0.585,0.741-0.968s0.261-0.819,0.261-1.305
		c0-0.525-0.119-0.975-0.357-1.35c-0.242-0.375-0.554-0.702-0.948-0.987c-0.396-0.281-0.845-0.54-1.344-0.776
		c-0.505-0.236-1.022-0.472-1.547-0.716c-0.525-0.246-1.04-0.515-1.537-0.815c-0.499-0.295-0.948-0.644-1.34-1.046
		c-0.392-0.402-0.712-0.874-0.954-1.42c-0.246-0.54-0.369-1.19-0.369-1.945c0-0.78,0.142-1.473,0.421-2.084
		c0.285-0.603,0.677-1.114,1.178-1.528c0.505-0.414,1.104-0.726,1.797-0.942c0.698-0.217,1.444-0.324,2.249-0.324
		c0.414,0,0.825,0.033,1.243,0.107c0.418,0.074,0.812,0.166,1.178,0.291c0.369,0.119,0.698,0.256,0.987,0.402
		c0.285,0.146,0.476,0.271,0.564,0.357c0.094,0.094,0.152,0.162,0.183,0.217c0.029,0.055,0.049,0.123,0.07,0.201
		c0.02,0.084,0.033,0.181,0.045,0.298c0.01,0.113,0.016,0.261,0.016,0.447c0,0.172-0.006,0.324-0.02,0.46
		c-0.016,0.133-0.039,0.246-0.068,0.339c-0.023,0.088-0.068,0.158-0.119,0.201c-0.055,0.045-0.113,0.064-0.181,0.064
		c-0.107,0-0.271-0.07-0.496-0.201c-0.226-0.137-0.501-0.285-0.829-0.457c-0.324-0.166-0.712-0.32-1.159-0.457
		c-0.443-0.142-0.942-0.211-1.502-0.211c-0.515,0-0.968,0.07-1.35,0.207c-0.382,0.142-0.702,0.324-0.954,0.554
		c-0.246,0.23-0.433,0.501-0.56,0.815c-0.123,0.32-0.187,0.654-0.187,1.007c0,0.515,0.119,0.962,0.357,1.336
		c0.24,0.375,0.56,0.702,0.958,0.993c0.402,0.289,0.855,0.548,1.366,0.79c0.505,0.24,1.026,0.482,1.559,0.726
		c0.525,0.246,1.046,0.511,1.551,0.806c0.511,0.291,0.962,0.638,1.366,1.036c0.396,0.4,0.716,0.864,0.962,1.409
		C222.884,28.362,223.007,29,223.007,29.743z"/>
	<path fill="#A93439" d="M60.849,33.518c0.059,0.174,0.105,0.332,0.142,0.472c0.037,0.142,0.064,0.265,0.08,0.371
		c0.016,0.117,0.014,0.222-0.008,0.314c-0.025,0.099-0.072,0.185-0.14,0.254l-0.006,0.004c-0.068,0.06-0.158,0.113-0.271,0.15
		c-0.103,0.033-0.226,0.059-0.369,0.07c-0.137,0.012-0.3,0.021-0.486,0.027l-0.632,0.008l-0.657-0.006l-0.494-0.016
		c-0.142-0.008-0.265-0.02-0.375-0.033c-0.111-0.016-0.209-0.035-0.285-0.06c-0.08-0.025-0.15-0.055-0.211-0.092
		c-0.062-0.039-0.113-0.084-0.152-0.133c-0.035-0.045-0.068-0.098-0.096-0.156c-0.027-0.055-0.049-0.119-0.068-0.183l-1.194-3.654
		h-6.836L47.647,34.4c-0.021,0.074-0.045,0.144-0.072,0.205c-0.029,0.064-0.06,0.123-0.098,0.174
		c-0.039,0.059-0.09,0.109-0.15,0.152c-0.059,0.041-0.131,0.078-0.209,0.107c-0.078,0.031-0.17,0.055-0.275,0.074
		c-0.105,0.02-0.222,0.033-0.351,0.043c-0.125,0.01-0.275,0.018-0.447,0.021l-0.564,0.008c-0.447,0-0.796-0.016-1.052-0.045
		c-0.137-0.016-0.254-0.045-0.351-0.084c-0.105-0.041-0.189-0.099-0.25-0.17c-0.062-0.072-0.107-0.16-0.127-0.259
		c-0.019-0.094-0.021-0.199-0.006-0.316c0.016-0.107,0.043-0.228,0.08-0.367c0.035-0.133,0.084-0.287,0.142-0.46l5.736-16.528
		c0.029-0.086,0.06-0.164,0.098-0.236c0.037-0.072,0.08-0.139,0.125-0.197c0.047-0.062,0.107-0.119,0.179-0.164
		c0.07-0.043,0.152-0.08,0.246-0.109c0.094-0.031,0.203-0.055,0.324-0.072c0.119-0.018,0.256-0.031,0.41-0.037l0.521-0.016
		l0.663-0.006l0.763,0.006l0.593,0.016c0.172,0.008,0.328,0.02,0.46,0.037c0.137,0.018,0.256,0.041,0.355,0.07
		c0.103,0.031,0.193,0.068,0.269,0.111c0.082,0.047,0.146,0.103,0.197,0.166l0.004,0.006c0.047,0.062,0.092,0.137,0.131,0.219
		c0.037,0.074,0.07,0.16,0.098,0.252L60.849,33.518L60.849,33.518z M49.366,27.958h5.628l-2.716-8.231h-0.23L49.366,27.958
		L49.366,27.958z M74.514,29.38c0,0.499-0.047,0.968-0.139,1.407c-0.094,0.439-0.232,0.847-0.419,1.229
		c-0.189,0.378-0.408,0.724-0.661,1.038c-0.252,0.316-0.538,0.601-0.856,0.855c-0.322,0.25-0.669,0.472-1.04,0.661
		c-0.373,0.189-0.771,0.349-1.194,0.476c-0.421,0.127-0.862,0.222-1.317,0.285c-0.455,0.062-0.921,0.094-1.403,0.094
		c-0.322,0-0.634-0.014-0.94-0.041c-0.304-0.027-0.597-0.07-0.876-0.123c-0.277-0.055-0.538-0.113-0.786-0.179
		c-0.242-0.064-0.474-0.137-0.691-0.213c-0.213-0.074-0.414-0.152-0.593-0.232c-0.179-0.08-0.343-0.164-0.492-0.25
		c-0.144-0.084-0.265-0.162-0.367-0.234c-0.111-0.08-0.203-0.152-0.273-0.222l-0.004-0.004c-0.07-0.072-0.131-0.162-0.181-0.263
		c-0.049-0.099-0.088-0.213-0.117-0.341c-0.029-0.125-0.049-0.275-0.062-0.447c-0.012-0.172-0.019-0.369-0.019-0.593
		c0-0.3,0.01-0.55,0.031-0.759c0.01-0.107,0.021-0.201,0.039-0.285c0.016-0.086,0.037-0.166,0.06-0.236
		c0.027-0.072,0.055-0.133,0.09-0.185c0.037-0.059,0.08-0.105,0.125-0.139l0.004-0.002c0.047-0.035,0.101-0.06,0.158-0.08
		c0.057-0.018,0.113-0.025,0.176-0.025c0.084,0,0.183,0.023,0.295,0.072c0.101,0.043,0.217,0.107,0.345,0.191
		c0.121,0.078,0.261,0.16,0.421,0.25c0.156,0.086,0.326,0.178,0.507,0.267c0.189,0.094,0.4,0.185,0.624,0.271
		c0.226,0.086,0.472,0.17,0.735,0.246c0.258,0.08,0.538,0.139,0.841,0.178c0.302,0.039,0.626,0.059,0.973,0.059
		c0.226,0,0.441-0.014,0.638-0.039c0.199-0.027,0.388-0.066,0.562-0.117c0.176-0.055,0.338-0.119,0.488-0.191
		c0.148-0.072,0.281-0.158,0.402-0.252c0.119-0.094,0.224-0.199,0.314-0.314c0.092-0.117,0.17-0.242,0.232-0.378
		c0.062-0.139,0.111-0.289,0.142-0.443c0.031-0.152,0.047-0.318,0.047-0.49c0-0.199-0.027-0.382-0.08-0.552
		c-0.053-0.166-0.131-0.318-0.236-0.455c-0.109-0.144-0.238-0.281-0.382-0.41c-0.146-0.131-0.31-0.252-0.488-0.365
		c-0.179-0.113-0.375-0.228-0.581-0.336c-0.209-0.107-0.429-0.215-0.665-0.318l-1.455-0.654c-0.254-0.117-0.505-0.242-0.747-0.373
		c-0.242-0.131-0.482-0.271-0.72-0.421c-0.242-0.148-0.472-0.314-0.687-0.492c-0.213-0.178-0.416-0.371-0.605-0.577
		c-0.191-0.211-0.367-0.439-0.519-0.685c-0.152-0.246-0.289-0.513-0.408-0.802c-0.119-0.287-0.209-0.601-0.265-0.944
		c-0.059-0.341-0.086-0.71-0.086-1.104c0-0.453,0.043-0.878,0.127-1.28c0.084-0.404,0.213-0.78,0.382-1.128
		c0.17-0.345,0.369-0.663,0.595-0.948c0.228-0.289,0.49-0.548,0.776-0.776c0.291-0.228,0.603-0.429,0.942-0.599
		c0.338-0.17,0.7-0.314,1.087-0.425c0.386-0.111,0.782-0.197,1.192-0.25c0.414-0.055,0.837-0.084,1.27-0.084
		c0.441,0,0.89,0.035,1.34,0.105c0.222,0.031,0.441,0.072,0.65,0.119c0.209,0.045,0.41,0.099,0.607,0.156
		c0.197,0.06,0.38,0.123,0.55,0.187c0.172,0.066,0.336,0.135,0.49,0.209c0.154,0.078,0.281,0.146,0.38,0.209
		c0.107,0.066,0.189,0.125,0.246,0.183c0.047,0.047,0.09,0.094,0.125,0.137c0.037,0.047,0.068,0.094,0.09,0.133l0.059,0.139
		l0.045,0.164c0.012,0.059,0.023,0.125,0.033,0.197l0.02,0.24l0.012,0.285l0.004,0.345l-0.006,0.386l-0.016,0.328
		c-0.008,0.094-0.018,0.185-0.031,0.273c-0.014,0.086-0.029,0.162-0.047,0.228c-0.02,0.072-0.045,0.135-0.072,0.189
		c-0.031,0.059-0.068,0.107-0.107,0.144c-0.045,0.041-0.098,0.072-0.156,0.094c-0.057,0.02-0.119,0.031-0.185,0.031
		c-0.068,0-0.152-0.021-0.25-0.06c-0.09-0.037-0.195-0.09-0.314-0.158l-0.38-0.209l-0.458-0.23c-0.166-0.078-0.345-0.15-0.535-0.222
		c-0.191-0.07-0.396-0.137-0.615-0.199c-0.217-0.064-0.441-0.113-0.675-0.144c-0.236-0.031-0.482-0.047-0.743-0.047
		c-0.201,0-0.388,0.012-0.56,0.037c-0.172,0.023-0.332,0.06-0.478,0.109c-0.144,0.047-0.277,0.103-0.394,0.166
		c-0.121,0.066-0.23,0.142-0.328,0.226c-0.096,0.082-0.179,0.172-0.252,0.269c-0.07,0.098-0.131,0.203-0.176,0.318
		c-0.047,0.117-0.084,0.236-0.107,0.359c-0.023,0.125-0.037,0.254-0.037,0.384c0,0.193,0.027,0.375,0.08,0.538
		c0.053,0.164,0.131,0.316,0.234,0.455c0.107,0.144,0.234,0.281,0.378,0.41c0.146,0.131,0.312,0.254,0.496,0.367
		c0.185,0.111,0.384,0.224,0.599,0.336c0.213,0.107,0.437,0.213,0.673,0.314l1.471,0.654c0.254,0.117,0.505,0.242,0.751,0.375
		c0.246,0.131,0.49,0.271,0.732,0.421c0.246,0.15,0.48,0.316,0.696,0.494c0.217,0.176,0.421,0.371,0.618,0.581
		c0.191,0.211,0.367,0.437,0.523,0.683c0.156,0.246,0.293,0.511,0.41,0.794c0.119,0.285,0.209,0.593,0.265,0.927
		C74.484,28.643,74.514,29,74.514,29.38L74.514,29.38z M53.069,11.238c0.062-0.076,0.131-0.146,0.195-0.209
		c0.066-0.06,0.131-0.117,0.191-0.162l0.006-0.004c0.066-0.045,0.139-0.086,0.217-0.123c0.078-0.037,0.162-0.07,0.252-0.096
		l0.004-0.002c0.092-0.023,0.195-0.047,0.304-0.062c0.101-0.016,0.213-0.027,0.336-0.035l0.408-0.016l0.49-0.006
		c0.224,0,0.427,0.008,0.599,0.021c0.176,0.016,0.328,0.037,0.458,0.07c0.131,0.027,0.242,0.062,0.336,0.103
		c0.099,0.043,0.178,0.096,0.236,0.152l0.002,0.002c0.06,0.064,0.099,0.137,0.113,0.211c0.016,0.074,0.006,0.154-0.025,0.234
		l-0.002,0.004c-0.027,0.066-0.07,0.137-0.123,0.205c-0.051,0.066-0.111,0.133-0.183,0.197l-3.2,2.88
		c-0.049,0.047-0.099,0.092-0.152,0.127l-0.16,0.111c-0.055,0.035-0.117,0.066-0.183,0.096c-0.066,0.027-0.137,0.053-0.211,0.074
		c-0.08,0.023-0.164,0.045-0.256,0.06c-0.088,0.016-0.185,0.027-0.291,0.039c-0.105,0.01-0.22,0.018-0.345,0.021L51.67,15.14
		c-0.164,0-0.316-0.004-0.449-0.012c-0.137-0.008-0.254-0.02-0.355-0.033c-0.105-0.016-0.195-0.037-0.273-0.06
		c-0.08-0.027-0.148-0.059-0.201-0.099c-0.064-0.047-0.107-0.099-0.131-0.162c-0.023-0.062-0.029-0.131-0.014-0.203
		c0.012-0.062,0.041-0.131,0.082-0.199c0.037-0.064,0.088-0.133,0.148-0.203L53.069,11.238L53.069,11.238z M41.541,34.453
		c0,0.06-0.008,0.119-0.025,0.176c-0.018,0.055-0.043,0.109-0.076,0.158l-0.002,0.002c-0.037,0.049-0.086,0.096-0.148,0.137
		c-0.059,0.037-0.125,0.07-0.203,0.098l-0.004,0.002c-0.072,0.023-0.16,0.047-0.261,0.066c-0.096,0.02-0.201,0.037-0.316,0.053
		c-0.119,0.016-0.256,0.027-0.404,0.033c-0.152,0.008-0.316,0.012-0.494,0.012c-0.351,0-0.648-0.016-0.884-0.045
		c-0.113-0.014-0.219-0.031-0.312-0.053c-0.099-0.02-0.187-0.045-0.261-0.066l-0.006-0.002c-0.074-0.027-0.142-0.06-0.199-0.098
		c-0.06-0.039-0.109-0.084-0.146-0.133c-0.037-0.049-0.066-0.103-0.084-0.16c-0.02-0.059-0.031-0.117-0.031-0.178V19.961
		L32.527,34.48c-0.021,0.068-0.053,0.133-0.086,0.191c-0.037,0.06-0.082,0.117-0.133,0.166c-0.053,0.049-0.111,0.094-0.178,0.131
		c-0.064,0.037-0.139,0.068-0.224,0.096c-0.082,0.025-0.176,0.047-0.281,0.064c-0.098,0.016-0.203,0.029-0.316,0.037l-0.388,0.016
		l-0.455,0.006l-0.46-0.008c-0.14-0.006-0.271-0.014-0.388-0.027c-0.119-0.012-0.23-0.031-0.33-0.051
		c-0.101-0.021-0.191-0.047-0.271-0.074c-0.078-0.029-0.15-0.06-0.217-0.098c-0.066-0.037-0.127-0.074-0.176-0.117l-0.004-0.006
		c-0.051-0.047-0.094-0.099-0.127-0.154c-0.035-0.057-0.062-0.117-0.08-0.178l-4.967-14.492v14.47c0,0.06-0.008,0.119-0.025,0.176
		c-0.018,0.055-0.043,0.109-0.076,0.158c-0.037,0.053-0.09,0.098-0.152,0.139c-0.059,0.037-0.127,0.07-0.205,0.098l-0.006,0.002
		c-0.074,0.021-0.166,0.045-0.269,0.066c-0.096,0.02-0.201,0.037-0.31,0.053c-0.119,0.016-0.25,0.027-0.396,0.033
		c-0.15,0.008-0.314,0.012-0.49,0.012c-0.351,0-0.65-0.016-0.886-0.045c-0.117-0.016-0.222-0.033-0.316-0.053
		c-0.1-0.02-0.189-0.043-0.261-0.066l-0.004-0.002c-0.076-0.027-0.146-0.06-0.203-0.098c-0.062-0.041-0.113-0.086-0.148-0.137
		c-0.035-0.053-0.06-0.105-0.078-0.16c-0.018-0.057-0.027-0.117-0.027-0.176V17.856c0-0.261,0.035-0.49,0.103-0.691
		c0.07-0.205,0.178-0.38,0.324-0.525c0.144-0.144,0.31-0.25,0.499-0.322c0.189-0.07,0.4-0.105,0.632-0.105h2.476
		c0.222,0,0.431,0.008,0.628,0.027c0.199,0.02,0.378,0.047,0.538,0.084c0.164,0.037,0.32,0.088,0.468,0.152
		c0.146,0.062,0.281,0.139,0.404,0.228c0.123,0.092,0.238,0.197,0.341,0.316c0.1,0.117,0.191,0.246,0.271,0.388
		c0.08,0.146,0.158,0.308,0.228,0.486c0.066,0.17,0.131,0.355,0.187,0.558l3.919,10.837l4.06-10.818
		c0.06-0.201,0.125-0.386,0.191-0.554c0.07-0.178,0.144-0.339,0.222-0.486c0.08-0.146,0.164-0.277,0.256-0.394
		c0.092-0.119,0.189-0.224,0.295-0.316c0.105-0.092,0.222-0.172,0.345-0.236c0.125-0.066,0.261-0.119,0.402-0.158
		c0.144-0.039,0.297-0.068,0.458-0.086c0.162-0.018,0.336-0.027,0.515-0.027h2.554c0.275,0,0.511,0.037,0.712,0.111
		c0.103,0.035,0.199,0.082,0.285,0.137c0.086,0.055,0.164,0.119,0.23,0.195c0.068,0.07,0.125,0.15,0.176,0.236
		c0.051,0.088,0.092,0.181,0.125,0.281c0.033,0.103,0.06,0.211,0.076,0.326c0.016,0.113,0.023,0.234,0.023,0.361L41.541,34.453
		L41.541,34.453L41.541,34.453L41.541,34.453z"/>
</g>
</svg>
