<?xml version="1.0" encoding="UTF-8" standalone="no"?>
<!-- Generator: Adobe Illustrator 17.0.0, SVG Export Plug-In . SVG Version: 6.00 Build 0)  -->

<svg
   version="1.1"
   id="Layer_1"
   x="0px"
   y="0px"
   width="73"
   height="61"
   viewBox="-73 -25 73 61"
   enable-background="new -73 -25 300 100"
   xml:space="preserve"
   sodipodi:docname="logo_ico.svg"
   inkscape:version="1.4.3 (0d15f75, 2025-12-25)"
   xmlns:inkscape="http://www.inkscape.org/namespaces/inkscape"
   xmlns:sodipodi="http://sodipodi.sourceforge.net/DTD/sodipodi-0.dtd"
   xmlns="http://www.w3.org/2000/svg"
   xmlns:svg="http://www.w3.org/2000/svg"><defs
   id="defs5" /><sodipodi:namedview
   id="namedview5"
   pagecolor="#ffffff"
   bordercolor="#000000"
   borderopacity="0.25"
   inkscape:showpageshadow="2"
   inkscape:pageopacity="0.0"
   inkscape:pagecheckerboard="0"
   inkscape:deskcolor="#d1d1d1"
   inkscape:zoom="2.7416667"
   inkscape:cx="86.990881"
   inkscape:cy="-32.279635"
   inkscape:window-width="3440"
   inkscape:window-height="1417"
   inkscape:window-x="-8"
   inkscape:window-y="-8"
   inkscape:window-maximized="1"
   inkscape:current-layer="Layer_1" />

<g
   id="g2"
   transform="translate(-3.9005005,-19.096773)">

	<path
   fill="#1d1d1b"
   d="m -15.707,40.62 c -1.889,10.761 -23.844,18.226 -24.463,10.213 l -5.07,-16.144 c -0.197,-0.09 -0.382,-0.178 -0.572,-0.265 1.693,-2.242 2.698,-5.031 2.698,-8.057 0,-2.907 -0.929,-5.597 -2.503,-7.79 3.393,-0.825 7.25,-1.416 11.06,-1.779 1.849,1.748 4.091,2.88 6.534,2.88 2.565,0 4.905,-1.245 6.805,-3.141 4.52,0.451 5.07,2.119 11.836,8.775 -0.685,0.402 -1.313,0.888 -1.871,1.446 -0.96,0.96 -1.709,2.128 -2.175,3.434 l -9.191,1.582 c -0.919,-2.718 -2.784,-4.579 -4.934,-4.579 -3.063,0 -5.543,3.765 -5.543,8.412 0,4.647 2.482,8.412 5.543,8.412 2.152,0 4.017,-1.859 4.936,-4.579 z"
   id="path1" />

	<circle
   fill="#a93439"
   cx="-56.487999"
   cy="26.362"
   r="11.832"
   id="circle1" />

	<polygon
   fill="#ffffff"
   points="-58.423,19.075 -54.525,19.075 -54.525,24.442 -49.215,24.442 -49.215,28.34 -54.525,28.34 -54.525,33.651 -58.423,33.651 -58.423,28.34 -63.761,28.34 -63.761,24.442 -58.423,24.442 "
   id="polygon1" />

	<path
   fill="#a93439"
   d="m -28.024,-5.003 c -5.599,0 -10.139,4.54 -10.139,10.139 0,5.599 4.54,12.997 10.139,12.997 5.599,0 10.139,-7.398 10.139,-12.997 0,-5.599 -4.539,-10.139 -10.139,-10.139 z"
   id="path2" />

	<circle
   fill="#a93439"
   cx="-4.71"
   cy="33.299999"
   r="7.8309999"
   id="circle2" />

	<rect
   x="-7.2309999"
   y="31.854"
   fill="#ffffff"
   width="5.3940001"
   height="2.9130001"
   id="rect2" />

</g>



</svg>
