<?xml version="1.0" encoding="UTF-8" standalone="no"?>
<!-- Generator: Adobe Illustrator 17.0.0, SVG Export Plug-In . SVG Version: 6.00 Build 0)  -->

<svg
   version="1.1"
   id="Layer_1"
   x="0px"
   y="0px"
   width="205"
   height="25"
   viewBox="-73 -25 205 25"
   enable-background="new -73 -25 300 100"
   xml:space="preserve"
   sodipodi:docname="logo-nombre.svg"
   inkscape:version="1.4.3 (0d15f75, 2025-12-25)"
   xmlns:inkscape="http://www.inkscape.org/namespaces/inkscape"
   xmlns:sodipodi="http://sodipodi.sourceforge.net/DTD/sodipodi-0.dtd"
   xmlns="http://www.w3.org/2000/svg"
   xmlns:svg="http://www.w3.org/2000/svg"><defs
   id="defs5" /><sodipodi:namedview
   id="namedview5"
   pagecolor="#ffffff"
   bordercolor="#000000"
   borderopacity="0.25"
   inkscape:showpageshadow="2"
   inkscape:pageopacity="0.0"
   inkscape:pagecheckerboard="0"
   inkscape:deskcolor="#d1d1d1"
   inkscape:zoom="5.4833333"
   inkscape:cx="57.173252"
   inkscape:cy="-14.863222"
   inkscape:window-width="3440"
   inkscape:window-height="1417"
   inkscape:window-x="-8"
   inkscape:window-y="-8"
   inkscape:window-maximized="1"
   inkscape:current-layer="Layer_1" />



<g
   id="g5"
   transform="translate(-91.8005,-35.474)">

	<path
   fill="#1d1d1b"
   d="m 93.412,32.433 c 0,0.25 -0.006,0.457 -0.02,0.628 -0.016,0.166 -0.033,0.31 -0.059,0.427 -0.025,0.113 -0.055,0.207 -0.088,0.281 -0.033,0.072 -0.107,0.162 -0.222,0.275 -0.119,0.107 -0.314,0.246 -0.589,0.402 -0.281,0.158 -0.595,0.298 -0.954,0.427 -0.353,0.123 -0.737,0.226 -1.153,0.298 -0.418,0.08 -0.851,0.119 -1.292,0.119 -0.987,0 -1.861,-0.152 -2.622,-0.46 -0.765,-0.304 -1.405,-0.761 -1.926,-1.36 -0.515,-0.599 -0.909,-1.336 -1.169,-2.201 -0.265,-0.864 -0.398,-1.851 -0.398,-2.967 0,-1.288 0.162,-2.402 0.482,-3.336 0.324,-0.936 0.771,-1.713 1.346,-2.329 0.574,-0.613 1.256,-1.071 2.043,-1.37 0.787,-0.299 1.65,-0.447 2.593,-0.447 0.382,0 0.757,0.033 1.13,0.103 0.369,0.064 0.712,0.158 1.036,0.271 0.32,0.119 0.609,0.246 0.86,0.388 0.256,0.146 0.437,0.271 0.54,0.378 0.107,0.103 0.181,0.191 0.226,0.265 0.039,0.074 0.072,0.166 0.098,0.281 0.025,0.119 0.045,0.261 0.059,0.427 0.016,0.172 0.02,0.375 0.02,0.613 0,0.56 -0.045,0.954 -0.142,1.178 -0.098,0.226 -0.222,0.339 -0.375,0.339 -0.162,0 -0.339,-0.07 -0.521,-0.201 -0.181,-0.133 -0.396,-0.285 -0.65,-0.447 -0.246,-0.162 -0.546,-0.314 -0.89,-0.447 -0.343,-0.133 -0.757,-0.201 -1.237,-0.201 -0.942,0 -1.66,0.363 -2.162,1.085 -0.496,0.726 -0.747,1.789 -0.747,3.188 0,0.687 0.064,1.297 0.185,1.826 0.127,0.525 0.31,0.968 0.554,1.321 0.246,0.353 0.55,0.624 0.919,0.802 0.375,0.178 0.802,0.265 1.292,0.265 0.496,0 0.929,-0.074 1.288,-0.226 0.357,-0.146 0.673,-0.314 0.942,-0.496 0.265,-0.181 0.492,-0.349 0.677,-0.496 0.183,-0.152 0.336,-0.226 0.457,-0.226 0.088,0 0.158,0.023 0.217,0.074 0.059,0.049 0.103,0.137 0.137,0.265 0.033,0.133 0.059,0.298 0.08,0.499 0.023,0.206 0.035,0.465 0.035,0.785 z m 15.455,-4.504 c 0,1.091 -0.142,2.088 -0.433,2.991 -0.289,0.899 -0.722,1.674 -1.311,2.329 -0.585,0.654 -1.317,1.153 -2.201,1.512 -0.884,0.353 -1.916,0.531 -3.094,0.531 -1.145,0 -2.136,-0.158 -2.981,-0.476 -0.845,-0.314 -1.547,-0.776 -2.101,-1.381 -0.554,-0.605 -0.968,-1.346 -1.239,-2.23 -0.271,-0.88 -0.402,-1.885 -0.402,-3.02 0,-1.091 0.146,-2.091 0.437,-2.997 0.295,-0.909 0.732,-1.686 1.321,-2.333 0.585,-0.644 1.317,-1.145 2.195,-1.502 0.874,-0.353 1.906,-0.531 3.082,-0.531 1.153,0 2.152,0.158 2.997,0.466 0.845,0.314 1.541,0.773 2.093,1.375 0.556,0.605 0.962,1.344 1.233,2.23 0.272,0.88 0.404,1.892 0.404,3.036 z m -3.712,0.144 c 0,-0.634 -0.049,-1.217 -0.152,-1.75 -0.103,-0.535 -0.271,-0.997 -0.515,-1.389 -0.24,-0.392 -0.56,-0.702 -0.958,-0.923 -0.402,-0.222 -0.903,-0.33 -1.512,-0.33 -0.54,0 -1.013,0.098 -1.42,0.295 -0.402,0.197 -0.737,0.486 -0.997,0.864 -0.261,0.378 -0.457,0.835 -0.585,1.366 -0.133,0.535 -0.197,1.139 -0.197,1.822 0,0.634 0.055,1.217 0.158,1.75 0.107,0.535 0.281,0.997 0.515,1.389 0.236,0.394 0.554,0.698 0.962,0.915 0.402,0.217 0.903,0.324 1.502,0.324 0.55,0 1.026,-0.098 1.434,-0.295 0.402,-0.197 0.737,-0.482 0.997,-0.855 0.261,-0.378 0.453,-0.829 0.579,-1.36 0.123,-0.537 0.189,-1.14 0.189,-1.823 z m 18.848,6.409 c 0,0.094 -0.029,0.178 -0.088,0.25 -0.055,0.072 -0.152,0.133 -0.285,0.181 -0.137,0.045 -0.324,0.084 -0.56,0.107 -0.236,0.023 -0.525,0.033 -0.868,0.033 -0.357,0 -0.654,-0.01 -0.89,-0.033 -0.236,-0.025 -0.421,-0.064 -0.56,-0.107 -0.133,-0.049 -0.23,-0.107 -0.285,-0.181 -0.059,-0.074 -0.088,-0.158 -0.088,-0.25 V 27.16 c 0,-0.624 -0.045,-1.114 -0.137,-1.469 -0.088,-0.357 -0.222,-0.663 -0.394,-0.915 -0.172,-0.256 -0.396,-0.453 -0.667,-0.595 -0.275,-0.137 -0.589,-0.207 -0.954,-0.207 -0.46,0 -0.923,0.166 -1.395,0.505 -0.466,0.336 -0.958,0.825 -1.463,1.463 v 8.537 c 0,0.094 -0.029,0.178 -0.088,0.25 -0.055,0.072 -0.152,0.133 -0.295,0.181 -0.137,0.045 -0.324,0.084 -0.55,0.107 -0.23,0.023 -0.525,0.033 -0.878,0.033 -0.353,0 -0.65,-0.01 -0.878,-0.033 -0.226,-0.025 -0.414,-0.064 -0.55,-0.107 -0.142,-0.049 -0.24,-0.107 -0.295,-0.181 -0.059,-0.074 -0.088,-0.158 -0.088,-0.25 V 21.631 c 0,-0.094 0.025,-0.176 0.074,-0.25 0.045,-0.072 0.133,-0.133 0.256,-0.181 0.127,-0.045 0.285,-0.084 0.482,-0.107 0.197,-0.025 0.447,-0.033 0.741,-0.033 0.31,0 0.56,0.01 0.761,0.033 0.201,0.023 0.357,0.064 0.472,0.107 0.107,0.049 0.187,0.107 0.236,0.181 0.049,0.074 0.074,0.158 0.074,0.25 v 1.483 c 0.708,-0.767 1.43,-1.336 2.166,-1.719 0.732,-0.382 1.498,-0.574 2.294,-0.574 0.874,0 1.611,0.142 2.21,0.433 0.599,0.285 1.079,0.677 1.453,1.174 0.369,0.492 0.634,1.071 0.796,1.732 0.162,0.663 0.246,1.459 0.246,2.388 v 7.931 H 124 v 0.003 z"
   id="path3" />

	<path
   fill="#a93439"
   d="m 155.112,34.595 c 0,0.08 -0.02,0.146 -0.059,0.201 -0.039,0.059 -0.107,0.103 -0.205,0.137 -0.098,0.033 -0.226,0.064 -0.378,0.088 -0.152,0.023 -0.353,0.033 -0.599,0.033 -0.23,0 -0.427,-0.01 -0.589,-0.033 -0.162,-0.025 -0.291,-0.055 -0.382,-0.088 -0.094,-0.033 -0.162,-0.08 -0.201,-0.137 -0.039,-0.055 -0.059,-0.123 -0.059,-0.201 V 18.373 h -0.029 l -6.557,16.296 c -0.025,0.068 -0.07,0.123 -0.119,0.172 -0.055,0.049 -0.133,0.088 -0.23,0.123 -0.103,0.033 -0.222,0.059 -0.363,0.074 -0.137,0.016 -0.304,0.02 -0.496,0.02 -0.201,0 -0.375,-0.01 -0.515,-0.029 -0.142,-0.02 -0.265,-0.045 -0.357,-0.08 -0.098,-0.033 -0.172,-0.074 -0.226,-0.123 -0.049,-0.049 -0.088,-0.098 -0.107,-0.158 l -6.276,-16.296 h -0.016 v 16.222 c 0,0.08 -0.02,0.146 -0.059,0.201 -0.039,0.059 -0.107,0.103 -0.205,0.137 -0.098,0.033 -0.23,0.064 -0.388,0.088 -0.158,0.023 -0.357,0.033 -0.605,0.033 -0.242,0 -0.437,-0.01 -0.595,-0.033 -0.158,-0.025 -0.285,-0.055 -0.378,-0.088 -0.094,-0.033 -0.158,-0.08 -0.191,-0.137 -0.033,-0.055 -0.055,-0.123 -0.055,-0.201 V 17.466 c 0,-0.408 0.107,-0.693 0.32,-0.864 0.217,-0.172 0.456,-0.261 0.716,-0.261 h 1.522 c 0.31,0 0.585,0.029 0.815,0.088 0.236,0.055 0.437,0.146 0.613,0.271 0.178,0.127 0.324,0.285 0.437,0.476 0.119,0.191 0.222,0.417 0.31,0.677 l 5.328,13.487 h 0.072 l 5.531,-13.448 c 0.107,-0.285 0.226,-0.531 0.353,-0.732 0.127,-0.201 0.265,-0.363 0.417,-0.482 0.146,-0.123 0.32,-0.207 0.499,-0.261 0.187,-0.055 0.402,-0.078 0.644,-0.078 h 1.598 c 0.142,0 0.285,0.02 0.418,0.064 0.127,0.045 0.24,0.113 0.336,0.201 0.094,0.094 0.166,0.207 0.226,0.349 0.059,0.137 0.088,0.31 0.088,0.511 z m 15.323,-0.654 c 0,0.178 -0.01,0.33 -0.029,0.457 -0.02,0.127 -0.055,0.236 -0.098,0.324 -0.049,0.088 -0.103,0.146 -0.166,0.187 -0.064,0.039 -0.133,0.059 -0.211,0.059 h -8.943 c -0.222,0 -0.433,-0.074 -0.628,-0.222 -0.197,-0.152 -0.295,-0.414 -0.295,-0.786 V 17.351 c 0,-0.375 0.098,-0.634 0.295,-0.786 0.197,-0.146 0.408,-0.222 0.628,-0.222 h 8.84 c 0.078,0 0.146,0.02 0.211,0.059 0.064,0.039 0.113,0.098 0.152,0.187 0.033,0.088 0.068,0.197 0.094,0.324 0.025,0.127 0.033,0.291 0.033,0.482 0,0.178 -0.01,0.324 -0.033,0.457 -0.025,0.127 -0.059,0.236 -0.094,0.32 -0.039,0.08 -0.094,0.137 -0.152,0.178 -0.064,0.039 -0.133,0.059 -0.211,0.059 h -7.289 v 5.833 h 6.257 c 0.078,0 0.146,0.02 0.211,0.064 0.059,0.045 0.113,0.103 0.158,0.181 0.045,0.08 0.074,0.181 0.094,0.314 0.02,0.137 0.029,0.295 0.029,0.476 0,0.178 -0.01,0.324 -0.029,0.447 -0.019,0.127 -0.049,0.226 -0.094,0.304 -0.045,0.08 -0.098,0.133 -0.158,0.166 -0.064,0.033 -0.133,0.049 -0.211,0.049 h -6.257 v 6.66 h 7.392 c 0.078,0 0.146,0.02 0.211,0.059 0.064,0.039 0.119,0.098 0.166,0.178 0.045,0.084 0.078,0.191 0.098,0.32 0.019,0.128 0.029,0.29 0.029,0.481 z m 18.105,-0.009 c 0,0.191 -0.033,0.357 -0.098,0.492 -0.064,0.133 -0.146,0.246 -0.25,0.33 -0.103,0.088 -0.222,0.146 -0.349,0.187 C 187.71,34.98 187.582,35 187.455,35 h -0.821 c -0.256,0 -0.482,-0.023 -0.677,-0.078 -0.191,-0.055 -0.375,-0.146 -0.55,-0.285 -0.172,-0.137 -0.349,-0.324 -0.521,-0.56 -0.172,-0.236 -0.357,-0.546 -0.554,-0.917 l -5.687,-10.594 c -0.298,-0.546 -0.599,-1.12 -0.899,-1.719 -0.304,-0.599 -0.585,-1.184 -0.845,-1.75 h -0.029 c 0.02,0.687 0.033,1.395 0.045,2.117 0.01,0.716 0.016,1.434 0.016,2.14 v 11.243 c 0,0.07 -0.02,0.133 -0.059,0.197 -0.045,0.059 -0.113,0.107 -0.205,0.142 -0.098,0.033 -0.222,0.064 -0.378,0.088 -0.156,0.023 -0.357,0.033 -0.599,0.033 -0.246,0 -0.447,-0.01 -0.605,-0.033 -0.158,-0.025 -0.281,-0.055 -0.369,-0.088 -0.094,-0.033 -0.158,-0.084 -0.201,-0.142 -0.039,-0.064 -0.059,-0.127 -0.059,-0.197 V 17.413 c 0,-0.382 0.107,-0.659 0.33,-0.819 0.217,-0.162 0.453,-0.246 0.712,-0.246 h 1.217 c 0.285,0 0.525,0.023 0.716,0.074 0.197,0.045 0.369,0.127 0.521,0.236 0.152,0.107 0.304,0.265 0.447,0.46 0.142,0.197 0.295,0.443 0.453,0.741 l 4.372,8.172 c 0.271,0.501 0.531,0.987 0.78,1.463 0.25,0.476 0.496,0.942 0.726,1.405 0.23,0.457 0.46,0.915 0.687,1.36 0.23,0.443 0.453,0.894 0.677,1.346 h 0.016 c -0.02,-0.761 -0.033,-1.547 -0.039,-2.368 -0.006,-0.819 -0.006,-1.611 -0.006,-2.368 V 16.781 c 0,-0.068 0.019,-0.133 0.059,-0.185 0.045,-0.059 0.113,-0.107 0.205,-0.152 0.098,-0.045 0.226,-0.074 0.378,-0.094 0.158,-0.02 0.363,-0.031 0.618,-0.031 0.222,0 0.414,0.01 0.574,0.031 0.162,0.02 0.289,0.049 0.378,0.094 0.094,0.045 0.158,0.094 0.201,0.152 0.039,0.055 0.059,0.119 0.059,0.185 l 0.001,17.151 c -0.002,0 0,0 0,0 z m 20.524,-8.493 c 0,1.508 -0.178,2.864 -0.531,4.072 -0.357,1.21 -0.89,2.236 -1.592,3.082 -0.708,0.845 -1.592,1.498 -2.657,1.955 -1.065,0.457 -2.308,0.683 -3.726,0.683 -1.401,0 -2.608,-0.207 -3.629,-0.624 -1.026,-0.418 -1.867,-1.026 -2.534,-1.822 -0.667,-0.796 -1.165,-1.783 -1.489,-2.962 -0.33,-1.178 -0.492,-2.534 -0.492,-4.068 0,-1.469 0.178,-2.805 0.531,-4.003 0.357,-1.198 0.89,-2.214 1.6,-3.055 0.708,-0.835 1.598,-1.483 2.661,-1.939 1.061,-0.457 2.304,-0.683 3.726,-0.683 1.37,0 2.564,0.207 3.58,0.618 1.018,0.414 1.867,1.013 2.54,1.803 0.677,0.79 1.184,1.769 1.512,2.936 0.332,1.171 0.5,2.505 0.5,4.007 z m -2.624,0.172 c 0,-1.052 -0.094,-2.033 -0.281,-2.936 -0.187,-0.903 -0.496,-1.69 -0.933,-2.357 -0.437,-0.663 -1.016,-1.184 -1.744,-1.559 -0.732,-0.375 -1.631,-0.56 -2.702,-0.56 -1.075,0 -1.974,0.201 -2.702,0.603 -0.726,0.402 -1.321,0.936 -1.771,1.606 -0.457,0.673 -0.78,1.453 -0.975,2.351 -0.197,0.894 -0.295,1.832 -0.295,2.819 0,1.094 0.094,2.097 0.275,3.016 0.181,0.923 0.486,1.713 0.919,2.382 0.427,0.663 1.007,1.178 1.729,1.547 0.722,0.369 1.631,0.554 2.72,0.554 1.085,0 1.994,-0.201 2.731,-0.605 0.737,-0.402 1.331,-0.942 1.783,-1.631 0.447,-0.683 0.773,-1.479 0.962,-2.376 0.192,-0.893 0.284,-1.847 0.284,-2.854 z m 16.567,4.132 c 0,0.868 -0.162,1.647 -0.482,2.329 -0.324,0.677 -0.773,1.256 -1.342,1.732 -0.57,0.472 -1.243,0.829 -2.013,1.071 -0.776,0.24 -1.606,0.357 -2.501,0.357 -0.624,0 -1.204,-0.055 -1.732,-0.158 -0.535,-0.107 -1.013,-0.24 -1.43,-0.392 -0.417,-0.152 -0.765,-0.314 -1.052,-0.476 -0.281,-0.166 -0.482,-0.304 -0.589,-0.421 -0.113,-0.113 -0.191,-0.261 -0.246,-0.437 -0.055,-0.178 -0.08,-0.414 -0.08,-0.708 0,-0.211 0.01,-0.388 0.029,-0.525 0.02,-0.137 0.049,-0.25 0.084,-0.336 0.039,-0.088 0.088,-0.146 0.146,-0.181 0.059,-0.033 0.123,-0.049 0.201,-0.049 0.133,0 0.324,0.084 0.57,0.246 0.24,0.162 0.556,0.339 0.942,0.531 0.382,0.187 0.845,0.369 1.391,0.535 0.54,0.166 1.169,0.25 1.875,0.25 0.54,0 1.032,-0.074 1.479,-0.217 0.447,-0.142 0.829,-0.343 1.149,-0.611 0.324,-0.261 0.57,-0.585 0.741,-0.968 0.171,-0.383 0.261,-0.819 0.261,-1.305 0,-0.525 -0.119,-0.975 -0.357,-1.35 -0.242,-0.375 -0.554,-0.702 -0.948,-0.987 -0.396,-0.281 -0.845,-0.54 -1.344,-0.776 -0.505,-0.236 -1.022,-0.472 -1.547,-0.716 -0.525,-0.246 -1.04,-0.515 -1.537,-0.815 -0.499,-0.295 -0.948,-0.644 -1.34,-1.046 -0.392,-0.402 -0.712,-0.874 -0.954,-1.42 -0.246,-0.54 -0.369,-1.19 -0.369,-1.945 0,-0.78 0.142,-1.473 0.421,-2.084 0.285,-0.603 0.677,-1.114 1.178,-1.528 0.505,-0.414 1.104,-0.726 1.797,-0.942 0.698,-0.217 1.444,-0.324 2.249,-0.324 0.414,0 0.825,0.033 1.243,0.107 0.418,0.074 0.812,0.166 1.178,0.291 0.369,0.119 0.698,0.256 0.987,0.402 0.285,0.146 0.476,0.271 0.564,0.357 0.094,0.094 0.152,0.162 0.183,0.217 0.029,0.055 0.049,0.123 0.07,0.201 0.02,0.084 0.033,0.181 0.045,0.298 0.01,0.113 0.016,0.261 0.016,0.447 0,0.172 -0.006,0.324 -0.02,0.46 -0.016,0.133 -0.039,0.246 -0.068,0.339 -0.023,0.088 -0.068,0.158 -0.119,0.201 -0.055,0.045 -0.113,0.064 -0.181,0.064 -0.107,0 -0.271,-0.07 -0.496,-0.201 -0.226,-0.137 -0.501,-0.285 -0.829,-0.457 -0.324,-0.166 -0.712,-0.32 -1.159,-0.457 -0.443,-0.142 -0.942,-0.211 -1.502,-0.211 -0.515,0 -0.968,0.07 -1.35,0.207 -0.382,0.142 -0.702,0.324 -0.954,0.554 -0.246,0.23 -0.433,0.501 -0.56,0.815 -0.123,0.32 -0.187,0.654 -0.187,1.007 0,0.515 0.119,0.962 0.357,1.336 0.24,0.375 0.56,0.702 0.958,0.993 0.402,0.289 0.855,0.548 1.366,0.79 0.505,0.24 1.026,0.482 1.559,0.726 0.525,0.246 1.046,0.511 1.551,0.806 0.511,0.291 0.962,0.638 1.366,1.036 0.396,0.4 0.716,0.864 0.962,1.409 0.247,0.548 0.37,1.186 0.37,1.929 z"
   id="path4" />

	<path
   fill="#a93439"
   d="m 60.849,33.518 c 0.059,0.174 0.105,0.332 0.142,0.472 0.037,0.142 0.064,0.265 0.08,0.371 0.016,0.117 0.014,0.222 -0.008,0.314 -0.025,0.099 -0.072,0.185 -0.14,0.254 l -0.006,0.004 c -0.068,0.06 -0.158,0.113 -0.271,0.15 -0.103,0.033 -0.226,0.059 -0.369,0.07 -0.137,0.012 -0.3,0.021 -0.486,0.027 l -0.632,0.008 -0.657,-0.006 -0.494,-0.016 c -0.142,-0.008 -0.265,-0.02 -0.375,-0.033 -0.111,-0.016 -0.209,-0.035 -0.285,-0.06 -0.08,-0.025 -0.15,-0.055 -0.211,-0.092 C 57.075,34.942 57.024,34.897 56.985,34.848 56.95,34.803 56.917,34.75 56.889,34.692 56.862,34.637 56.84,34.573 56.821,34.509 L 55.627,30.855 H 48.791 L 47.647,34.4 c -0.021,0.074 -0.045,0.144 -0.072,0.205 -0.029,0.064 -0.06,0.123 -0.098,0.174 -0.039,0.059 -0.09,0.109 -0.15,0.152 -0.059,0.041 -0.131,0.078 -0.209,0.107 -0.078,0.031 -0.17,0.055 -0.275,0.074 -0.105,0.02 -0.222,0.033 -0.351,0.043 -0.125,0.01 -0.275,0.018 -0.447,0.021 l -0.564,0.008 c -0.447,0 -0.796,-0.016 -1.052,-0.045 -0.137,-0.016 -0.254,-0.045 -0.351,-0.084 -0.105,-0.041 -0.189,-0.099 -0.25,-0.17 -0.062,-0.072 -0.107,-0.16 -0.127,-0.259 -0.019,-0.094 -0.021,-0.199 -0.006,-0.316 0.016,-0.107 0.043,-0.228 0.08,-0.367 0.035,-0.133 0.084,-0.287 0.142,-0.46 l 5.736,-16.528 c 0.029,-0.086 0.06,-0.164 0.098,-0.236 0.037,-0.072 0.08,-0.139 0.125,-0.197 0.047,-0.062 0.107,-0.119 0.179,-0.164 0.07,-0.043 0.152,-0.08 0.246,-0.109 0.094,-0.031 0.203,-0.055 0.324,-0.072 0.119,-0.018 0.256,-0.031 0.41,-0.037 l 0.521,-0.016 0.663,-0.006 0.763,0.006 0.593,0.016 c 0.172,0.008 0.328,0.02 0.46,0.037 0.137,0.018 0.256,0.041 0.355,0.07 0.103,0.031 0.193,0.068 0.269,0.111 0.082,0.047 0.146,0.103 0.197,0.166 l 0.004,0.006 c 0.047,0.062 0.092,0.137 0.131,0.219 0.037,0.074 0.07,0.16 0.098,0.252 z m -11.483,-5.56 h 5.628 l -2.716,-8.231 h -0.23 z m 25.148,1.422 c 0,0.499 -0.047,0.968 -0.139,1.407 -0.094,0.439 -0.232,0.847 -0.419,1.229 -0.189,0.378 -0.408,0.724 -0.661,1.038 -0.252,0.316 -0.538,0.601 -0.856,0.855 -0.322,0.25 -0.669,0.472 -1.04,0.661 -0.373,0.189 -0.771,0.349 -1.194,0.476 -0.421,0.127 -0.862,0.222 -1.317,0.285 -0.455,0.062 -0.921,0.094 -1.403,0.094 -0.322,0 -0.634,-0.014 -0.94,-0.041 -0.304,-0.027 -0.597,-0.07 -0.876,-0.123 -0.277,-0.055 -0.538,-0.113 -0.786,-0.179 -0.242,-0.064 -0.474,-0.137 -0.691,-0.213 -0.213,-0.074 -0.414,-0.152 -0.593,-0.232 -0.179,-0.08 -0.343,-0.164 -0.492,-0.25 -0.144,-0.084 -0.265,-0.162 -0.367,-0.234 -0.111,-0.08 -0.203,-0.152 -0.273,-0.222 l -0.004,-0.004 c -0.07,-0.072 -0.131,-0.162 -0.181,-0.263 -0.049,-0.099 -0.088,-0.213 -0.117,-0.341 -0.029,-0.125 -0.049,-0.275 -0.062,-0.447 -0.012,-0.172 -0.019,-0.369 -0.019,-0.593 0,-0.3 0.01,-0.55 0.031,-0.759 0.01,-0.107 0.021,-0.201 0.039,-0.285 0.016,-0.086 0.037,-0.166 0.06,-0.236 0.027,-0.072 0.055,-0.133 0.09,-0.185 0.037,-0.059 0.08,-0.105 0.125,-0.139 l 0.004,-0.002 c 0.047,-0.035 0.101,-0.06 0.158,-0.08 0.057,-0.018 0.113,-0.025 0.176,-0.025 0.084,0 0.183,0.023 0.295,0.072 0.101,0.043 0.217,0.107 0.345,0.191 0.121,0.078 0.261,0.16 0.421,0.25 0.156,0.086 0.326,0.178 0.507,0.267 0.189,0.094 0.4,0.185 0.624,0.271 0.226,0.086 0.472,0.17 0.735,0.246 0.258,0.08 0.538,0.139 0.841,0.178 0.302,0.039 0.626,0.059 0.973,0.059 0.226,0 0.441,-0.014 0.638,-0.039 0.199,-0.027 0.388,-0.066 0.562,-0.117 0.176,-0.055 0.338,-0.119 0.488,-0.191 0.148,-0.072 0.281,-0.158 0.402,-0.252 0.119,-0.094 0.224,-0.199 0.314,-0.314 0.092,-0.117 0.17,-0.242 0.232,-0.378 0.062,-0.139 0.111,-0.289 0.142,-0.443 0.031,-0.152 0.047,-0.318 0.047,-0.49 0,-0.199 -0.027,-0.382 -0.08,-0.552 C 70.2,29.164 70.122,29.012 70.017,28.875 69.908,28.731 69.779,28.594 69.635,28.465 69.489,28.334 69.325,28.213 69.147,28.1 68.968,27.987 68.772,27.872 68.566,27.764 68.357,27.657 68.137,27.549 67.901,27.446 L 66.446,26.792 C 66.192,26.675 65.941,26.55 65.699,26.419 65.457,26.288 65.217,26.148 64.979,25.998 64.737,25.85 64.507,25.684 64.292,25.506 64.079,25.328 63.876,25.135 63.687,24.929 63.496,24.718 63.32,24.49 63.168,24.244 63.016,23.998 62.879,23.731 62.76,23.442 c -0.119,-0.287 -0.209,-0.601 -0.265,-0.944 -0.059,-0.341 -0.086,-0.71 -0.086,-1.104 0,-0.453 0.043,-0.878 0.127,-1.28 0.084,-0.404 0.213,-0.78 0.382,-1.128 0.17,-0.345 0.369,-0.663 0.595,-0.948 0.228,-0.289 0.49,-0.548 0.776,-0.776 0.291,-0.228 0.603,-0.429 0.942,-0.599 0.338,-0.17 0.7,-0.314 1.087,-0.425 0.386,-0.111 0.782,-0.197 1.192,-0.25 0.414,-0.055 0.837,-0.084 1.27,-0.084 0.441,0 0.89,0.035 1.34,0.105 0.222,0.031 0.441,0.072 0.65,0.119 0.209,0.045 0.41,0.099 0.607,0.156 0.197,0.06 0.38,0.123 0.55,0.187 0.172,0.066 0.336,0.135 0.49,0.209 0.154,0.078 0.281,0.146 0.38,0.209 0.107,0.066 0.189,0.125 0.246,0.183 0.047,0.047 0.09,0.094 0.125,0.137 0.037,0.047 0.068,0.094 0.09,0.133 l 0.059,0.139 0.045,0.164 c 0.012,0.059 0.023,0.125 0.033,0.197 l 0.02,0.24 0.012,0.285 0.004,0.345 -0.006,0.386 -0.016,0.328 c -0.008,0.094 -0.018,0.185 -0.031,0.273 -0.014,0.086 -0.029,0.162 -0.047,0.228 -0.02,0.072 -0.045,0.135 -0.072,0.189 -0.031,0.059 -0.068,0.107 -0.107,0.144 -0.045,0.041 -0.098,0.072 -0.156,0.094 -0.057,0.02 -0.119,0.031 -0.185,0.031 -0.068,0 -0.152,-0.021 -0.25,-0.06 -0.09,-0.037 -0.195,-0.09 -0.314,-0.158 l -0.38,-0.209 -0.458,-0.23 c -0.166,-0.078 -0.345,-0.15 -0.535,-0.222 -0.191,-0.07 -0.396,-0.137 -0.615,-0.199 -0.217,-0.064 -0.441,-0.113 -0.675,-0.144 -0.236,-0.031 -0.482,-0.047 -0.743,-0.047 -0.201,0 -0.388,0.012 -0.56,0.037 -0.172,0.023 -0.332,0.06 -0.478,0.109 -0.144,0.047 -0.277,0.103 -0.394,0.166 -0.121,0.066 -0.23,0.142 -0.328,0.226 -0.096,0.082 -0.179,0.172 -0.252,0.269 -0.07,0.098 -0.131,0.203 -0.176,0.318 -0.047,0.117 -0.084,0.236 -0.107,0.359 -0.023,0.125 -0.037,0.254 -0.037,0.384 0,0.193 0.027,0.375 0.08,0.538 0.053,0.164 0.131,0.316 0.234,0.455 0.107,0.144 0.234,0.281 0.378,0.41 0.146,0.131 0.312,0.254 0.496,0.367 0.185,0.111 0.384,0.224 0.599,0.336 0.213,0.107 0.437,0.213 0.673,0.314 l 1.471,0.654 c 0.254,0.117 0.505,0.242 0.751,0.375 0.246,0.131 0.49,0.271 0.732,0.421 0.246,0.15 0.48,0.316 0.696,0.494 0.217,0.176 0.421,0.371 0.618,0.581 0.191,0.211 0.367,0.437 0.523,0.683 0.156,0.246 0.293,0.511 0.41,0.794 0.119,0.285 0.209,0.593 0.265,0.927 0.049,0.31 0.079,0.667 0.079,1.047 z M 53.069,11.238 c 0.062,-0.076 0.131,-0.146 0.195,-0.209 0.066,-0.06 0.131,-0.117 0.191,-0.162 l 0.006,-0.004 c 0.066,-0.045 0.139,-0.086 0.217,-0.123 0.078,-0.037 0.162,-0.07 0.252,-0.096 l 0.004,-0.002 c 0.092,-0.023 0.195,-0.047 0.304,-0.062 0.101,-0.016 0.213,-0.027 0.336,-0.035 l 0.408,-0.016 0.49,-0.006 c 0.224,0 0.427,0.008 0.599,0.021 0.176,0.016 0.328,0.037 0.458,0.07 0.131,0.027 0.242,0.062 0.336,0.103 0.099,0.043 0.178,0.096 0.236,0.152 l 0.002,0.002 c 0.06,0.064 0.099,0.137 0.113,0.211 0.016,0.074 0.006,0.154 -0.025,0.234 l -0.002,0.004 c -0.027,0.066 -0.07,0.137 -0.123,0.205 -0.051,0.066 -0.111,0.133 -0.183,0.197 l -3.2,2.88 c -0.049,0.047 -0.099,0.092 -0.152,0.127 l -0.16,0.111 c -0.055,0.035 -0.117,0.066 -0.183,0.096 -0.066,0.027 -0.137,0.053 -0.211,0.074 -0.08,0.023 -0.164,0.045 -0.256,0.06 -0.088,0.016 -0.185,0.027 -0.291,0.039 -0.105,0.01 -0.22,0.018 -0.345,0.021 l -0.415,0.01 c -0.164,0 -0.316,-0.004 -0.449,-0.012 -0.137,-0.008 -0.254,-0.02 -0.355,-0.033 -0.105,-0.016 -0.195,-0.037 -0.273,-0.06 -0.08,-0.027 -0.148,-0.059 -0.201,-0.099 -0.064,-0.047 -0.107,-0.099 -0.131,-0.162 -0.023,-0.062 -0.029,-0.131 -0.014,-0.203 0.012,-0.062 0.041,-0.131 0.082,-0.199 0.037,-0.064 0.088,-0.133 0.148,-0.203 z M 41.541,34.453 c 0,0.06 -0.008,0.119 -0.025,0.176 -0.018,0.055 -0.043,0.109 -0.076,0.158 l -0.002,0.002 c -0.037,0.049 -0.086,0.096 -0.148,0.137 -0.059,0.037 -0.125,0.07 -0.203,0.098 l -0.004,0.002 c -0.072,0.023 -0.16,0.047 -0.261,0.066 -0.096,0.02 -0.201,0.037 -0.316,0.053 -0.119,0.016 -0.256,0.027 -0.404,0.033 -0.152,0.008 -0.316,0.012 -0.494,0.012 -0.351,0 -0.648,-0.016 -0.884,-0.045 -0.113,-0.014 -0.219,-0.031 -0.312,-0.053 -0.099,-0.02 -0.187,-0.045 -0.261,-0.066 l -0.006,-0.002 c -0.074,-0.027 -0.142,-0.06 -0.199,-0.098 -0.06,-0.039 -0.109,-0.084 -0.146,-0.133 -0.037,-0.049 -0.066,-0.103 -0.084,-0.16 -0.02,-0.059 -0.031,-0.117 -0.031,-0.178 V 19.961 L 32.527,34.48 c -0.021,0.068 -0.053,0.133 -0.086,0.191 -0.037,0.06 -0.082,0.117 -0.133,0.166 -0.053,0.049 -0.111,0.094 -0.178,0.131 -0.064,0.037 -0.139,0.068 -0.224,0.096 -0.082,0.025 -0.176,0.047 -0.281,0.064 -0.098,0.016 -0.203,0.029 -0.316,0.037 l -0.388,0.016 -0.455,0.006 -0.46,-0.008 c -0.14,-0.006 -0.271,-0.014 -0.388,-0.027 -0.119,-0.012 -0.23,-0.031 -0.33,-0.051 -0.101,-0.021 -0.191,-0.047 -0.271,-0.074 -0.078,-0.029 -0.15,-0.06 -0.217,-0.098 -0.066,-0.037 -0.127,-0.074 -0.176,-0.117 L 28.62,34.806 c -0.051,-0.047 -0.094,-0.099 -0.127,-0.154 -0.035,-0.057 -0.062,-0.117 -0.08,-0.178 L 23.446,19.982 v 14.47 c 0,0.06 -0.008,0.119 -0.025,0.176 -0.018,0.055 -0.043,0.109 -0.076,0.158 -0.037,0.053 -0.09,0.098 -0.152,0.139 -0.059,0.037 -0.127,0.07 -0.205,0.098 l -0.006,0.002 c -0.074,0.021 -0.166,0.045 -0.269,0.066 -0.096,0.02 -0.201,0.037 -0.31,0.053 -0.119,0.016 -0.25,0.027 -0.396,0.033 -0.15,0.008 -0.314,0.012 -0.49,0.012 -0.351,0 -0.65,-0.016 -0.886,-0.045 -0.117,-0.016 -0.222,-0.033 -0.316,-0.053 -0.1,-0.02 -0.189,-0.043 -0.261,-0.066 L 20.05,35.023 c -0.076,-0.027 -0.146,-0.06 -0.203,-0.098 -0.062,-0.041 -0.113,-0.086 -0.148,-0.137 -0.035,-0.053 -0.06,-0.105 -0.078,-0.16 -0.018,-0.057 -0.027,-0.117 -0.027,-0.176 V 17.856 c 0,-0.261 0.035,-0.49 0.103,-0.691 0.07,-0.205 0.178,-0.38 0.324,-0.525 0.144,-0.144 0.31,-0.25 0.499,-0.322 0.189,-0.07 0.4,-0.105 0.632,-0.105 h 2.476 c 0.222,0 0.431,0.008 0.628,0.027 0.199,0.02 0.378,0.047 0.538,0.084 0.164,0.037 0.32,0.088 0.468,0.152 0.146,0.062 0.281,0.139 0.404,0.228 0.123,0.092 0.238,0.197 0.341,0.316 0.1,0.117 0.191,0.246 0.271,0.388 0.08,0.146 0.158,0.308 0.228,0.486 0.066,0.17 0.131,0.355 0.187,0.558 l 3.919,10.837 4.06,-10.818 c 0.06,-0.201 0.125,-0.386 0.191,-0.554 0.07,-0.178 0.144,-0.339 0.222,-0.486 0.08,-0.146 0.164,-0.277 0.256,-0.394 0.092,-0.119 0.189,-0.224 0.295,-0.316 0.105,-0.092 0.222,-0.172 0.345,-0.236 0.125,-0.066 0.261,-0.119 0.402,-0.158 0.144,-0.039 0.297,-0.068 0.458,-0.086 0.162,-0.018 0.336,-0.027 0.515,-0.027 h 2.554 c 0.275,0 0.511,0.037 0.712,0.111 0.103,0.035 0.199,0.082 0.285,0.137 0.086,0.055 0.164,0.119 0.23,0.195 0.068,0.07 0.125,0.15 0.176,0.236 0.051,0.088 0.092,0.181 0.125,0.281 0.033,0.103 0.06,0.211 0.076,0.326 0.016,0.113 0.023,0.234 0.023,0.361 z"
   id="path5" />

</g>

</svg>
